# xmcd
#
# Track frame offsets: 
#        150
#        19487
#        37902
#        55722
#        74400
#        96377
#        118235
#        137665
#        156647
#        174677
#
# Disc length: 2587 seconds
#
# Revision: 7
# Processed by: cddbd v1.5.2PL0 Copyright (c) Steve Scherf et al.
# Submitted via: ExactAudioCopy v0.99pb4
#
DISCID=930a190a
DTITLE=Matraca Berg - The Speed of Grace
DYEAR=1993
DGENRE=Country
TTITLE0=Slow Poison
TTITLE1=Tall Drink of Water
TTITLE2=Let's Face It
TTITLE3=I Won't Let Go
TTITLE4=Jolene
TTITLE5=Guns in My Head
TTITLE6=Waiting For The Sky to Fall
TTITLE7=Lying to The Moon
TTITLE8=Come to Momma
TTITLE9=River of No Return
EXTD=
EXTT0=
EXTT1=
EXTT2=
EXTT3=
EXTT4=
EXTT5=
EXTT6=
EXTT7=
EXTT8=
EXTT9=
PLAYORDER=
